<?xml version="1.0" encoding="UTF-8" standalone="no"?>
<!-- Created with Inkscape (http://www.inkscape.org/) -->

<svg
   version="1.1"
   id="svg48"
   width="1357.5004"
   height="615.6615"
   viewBox="0 0 1357.5004 615.66152"
   sodipodi:docname="signal-2025-11-08-130956_002.png"
   xmlns:inkscape="http://www.inkscape.org/namespaces/inkscape"
   xmlns:sodipodi="http://sodipodi.sourceforge.net/DTD/sodipodi-0.dtd"
   xmlns="http://www.w3.org/2000/svg"
   xmlns:svg="http://www.w3.org/2000/svg">
  <defs
     id="defs52" />
  <sodipodi:namedview
     id="namedview50"
     borderopacity="0.25"
     inkscape:showpageshadow="2"
     inkscape:pageopacity="0.0"
     inkscape:pagecheckerboard="0"
     inkscape:deskcolor="#d1d1d1"
     showgrid="false" />
  <g
     inkscape:groupmode="layer"
     inkscape:label="Image"
     id="g54"
     transform="translate(-16.806129,-10.955486)">
    <path
       style="fill:#ffffff;stroke-width:1.33333"
       d="m 1140.2001,625.43108 c -10.2641,-1.2591 -28.9329,-8.39093 -38.1193,-14.56233 -30.3586,-20.3946 -45.1508,-52.18215 -51.1995,-110.02411 -2.3797,-22.75556 -3.148,-83.16077 -1.4924,-117.33333 2.7297,-56.34317 5.9789,-85.2291 18.8228,-167.33333 7.2228,-46.17121 9.3323,-67.45869 9.3011,-93.86029 -0.021,-17.80473 -2.257,-56.861738 -3.3159,-57.920638 -1.0949,-1.09497 -19.9637,14.96124 -36.4936,31.05386 -58.36677,56.823008 -107.70087,133.371778 -141.93547,220.232738 -11.8257,30.0049 -15.3702,42.08098 -16.9152,57.62968 -5.7305,57.67587 -25.1311,159.16428 -33.0022,172.6416 -6.3925,10.94539 -21.9374,17.58559 -40.9836,17.50663 -13.2915,-0.0551 -21.9722,-2.93884 -29.1642,-9.6884 -6.0506,-5.67833 -7.503,-10.69209 -7.4982,-25.88569 0.01,-24.70636 9.1514,-66.32125 27.3284,-124.37616 8.0572,-25.73365 8.9247,-32.32264 11.4212,-86.75117 1.6976,-37.01043 0.8617,-169.30324 -1.1413,-180.63066 -0.7179,-4.06002 -2.0193,-10.82128 -2.892,-15.02504 l -1.5867,-7.64319 -7.8575,4.18798 c -19.4387,10.36075 -59.4286,47.26646 -81.2764,75.00813 -25.1958,31.99286 -47.255,66.35022 -66.4655,103.52062 -23.8609,46.16839 -49.6591,112.71612 -64.9139,167.44848 -17.4954,62.77142 -33.7595,110.15985 -40.1866,117.09119 -16.7011,18.0113 -57.27717,20.5936 -67.22597,4.2783 -5.4672,-8.966 -2.9333,-19.29183 20.4867,-83.48464 19.7342,-54.09036 25.9702,-75.35004 38.91467,-132.66666 19.8002,-87.67266 23.9853,-117.9282 23.7921,-172 -0.1826,-51.12672 -2.9947,-78.4755 -10.4707,-101.831998 -4.9286,-15.39797 -4.2686,-15.13669 -15.4895,-6.13241 -14.89397,11.951758 -55.18487,52.837658 -68.14245,69.148698 -20.54417,25.86103 -44.16787,61.11659 -62.87217,93.82922 -4.92256,8.60923 -9.46918,16.55315 -10.1036,17.65315 -0.63443,1.1 -8.45229,14.86302 -17.37304,30.58447 -52.05436,91.7379 -102.27694,160.95461 -155.1502,213.82788 -34.60966,34.60965 -67.49586,57.26922 -96.13311,66.23859 -11.88488,3.7224 -34.616604,5.0812 -44.805664,2.6783 -16.00257,-3.774 -29.11235,-13.61384 -37.73038,-28.3194 -8.34337,-14.23688 -16.16779,-42.16725 -19.70593,-70.34317 -2.40218,-19.12964 -2.43332,-138.82981 -0.0427,-164 3.37465,-35.53035 9.69469,-83.15464 11.30736,-85.20586 9.12508,-11.6067 28.95079,-17.1256 39.15924,-10.9008 3.98361,2.42908 4.21673,3.04544 4.91512,12.99501 0.80388,11.45247 1.76399,61.86256 2.05273,107.77832 l 0.18447,29.33333 49.666204,0.0636 c 44.01754,0.0564 106.59069,2.014 127.85239,3.99983 l 7.51954,0.7023 11.26542,-17.71622 c 18.24543,-28.69312 29.08043,-46.81108 51.44828,-86.0302 35.19512,-61.71009 54.33213,-90.68483 84.77342,-128.35269 15.07831,-18.6578 59.8044,-64.820328 76.1405,-78.585808 28.9031,-24.35506 52.58617,-34.81435 78.54657,-34.689 13.2951,0.0643 19.4298,1.71676 27.7485,7.47486 19.0151,13.16204 30.5545,50.5866 34.2665,111.133278 1.1109,18.11956 2.6752,52.14177 2.7529,59.87345 0.011,1.0304 4.4049,-4.0696 9.7657,-11.33333 38.5282,-52.20467 85.0273,-95.28438 124.9198,-115.733768 24.3418,-12.47793 35.8231,-15.88535 54,-16.02611 12.9593,-0.1004 15.8597,0.32542 24.9151,3.65742 16.3427,6.01344 24.7471,16.72204 30.3661,38.691658 4.095,16.01173 6.7372,36.71289 8.4685,66.35003 l 1.5836,27.11014 11.6207,-18.78866 c 28.9748,-46.84703 74.9674,-101.412948 113.31527,-134.437588 40.6736,-35.02745 70.1665,-45.9958901 102.7263,-38.20393 19.9442,4.77296 30.6942,15.9588 38.9382,40.51743 4.8155,14.34496 7.2239,31.32162 8.9324,62.962088 1.7986,33.30776 0.6275,52.54549 -6.1985,101.83089 -7.7876,56.22874 -11.1561,83.95309 -13.2272,108.86361 -7.1252,85.70453 -5.5555,167.4293 3.9823,207.33333 3.6528,15.28276 11.7249,33.5062 17.0518,38.4957 4.9872,4.67136 9.6752,3.18936 30.5332,-9.6526 24.7002,-15.20741 51.7696,-35.70705 99.2178,-75.1371 25.6369,-21.30471 42.078,-34.04111 45.3333,-35.11841 10.0451,-3.32431 25.2396,-1.5677 33.6229,3.88712 1.7502,1.1387 4.0308,4.10192 5.0683,6.58493 1.6885,4.04129 1.6345,4.98453 -0.5152,8.99756 -3.5171,6.56531 -51.0353,59.32808 -75.0267,83.30716 -37.2108,37.1918 -64.5974,56.3943 -92.0416,64.53613 -18.5212,5.4946 -43.9012,7.315 -65.3333,4.686 z M 116.00034,538.9466 c 16.87293,-8.60793 51.25713,-40.21545 79.88649,-73.43529 15.67811,-18.19197 48.9751,-61.1454 48.06372,-62.00267 -0.22936,-0.21573 -17.81702,0.42056 -39.08369,1.414 -21.26666,0.99346 -58.64147,2.22974 -83.05511,2.7473 -24.413654,0.51756 -44.668954,1.39489 -45.011804,1.94962 -1.0937,1.76966 2.03587,50.67384 4.15698,64.95876 4.07594,27.45002 13.54448,52.52647 23.358364,61.86219 2.93179,2.78893 5.62916,5.0708 5.99416,5.0708 0.36501,0 2.9259,-1.15412 5.69089,-2.56471 z"
       id="path216" />
  </g>
</svg>
